<svg width="606" height="349" viewBox="0 0 606 349" fill="none" xmlns="http://www.w3.org/2000/svg">
<g clip-path="url(#clip0_8_5)">
<path d="M584.741 337.801C574.887 272.985 566.433 216.155 559.5 151C492.251 118.308 436.857 90.9662 368.127 62.2873C351.169 55.2866 334.252 48.613 317.004 42.9863C303.929 38.6354 289.993 39.5404 276.987 43.9241C240.941 55.581 205.996 72.2758 171.451 88.7199C126.121 110.496 102.32 128.744 57 151C45.7343 215.278 39.5 261.5 27.5 325.5L22.9359 348.324H0C3.5 319 7.09829 290.992 11 263C15.9482 227.5 23.8077 169.234 29 133.5C29.8104 128.146 39.3682 119.246 43.5 117C65.6797 105.158 67.3753 101.533 89.7451 89.3087C145.95 58.896 202.034 28.0144 262 6.88139C265.772 5.64918 270.554 4.12254 274.376 3.13023C293.234 -1.79861 313.663 -0.958967 332.031 6.01993C419.749 37.9375 499.084 80.8803 582 125C586.792 127.606 591.16 135.07 591.5 140.5C594.401 189.669 600.339 237.375 603 286.5C604.05 306.292 605.39 328.478 606 348.324H586.372L584.731 337.812L584.741 337.801Z" fill="url(#paint0_linear_8_5)"/>
<path d="M202.514 212.84C199.474 213.72 195.554 214.52 190.754 215.24C185.954 216.04 180.914 216.44 175.634 216.44C170.274 216.44 165.794 215.72 162.194 214.28C158.674 212.84 155.874 210.84 153.794 208.28C151.714 205.64 150.234 202.52 149.354 198.92C148.474 195.32 148.034 191.36 148.034 187.04V151.88H165.914V184.88C165.914 190.64 166.674 194.8 168.194 197.36C169.714 199.92 172.554 201.2 176.714 201.2C177.994 201.2 179.354 201.16 180.794 201.08C182.234 200.92 183.514 200.76 184.634 200.6V151.88H202.514V212.84ZM252.538 167.72C250.938 167.32 249.058 166.92 246.898 166.52C244.738 166.04 242.418 165.8 239.938 165.8C238.818 165.8 237.458 165.92 235.858 166.16C234.338 166.32 233.178 166.52 232.378 166.76V215H214.498V155.24C217.698 154.12 221.458 153.08 225.778 152.12C230.178 151.08 235.058 150.56 240.418 150.56C241.378 150.56 242.538 150.64 243.898 150.8C245.258 150.88 246.618 151.04 247.978 151.28C249.338 151.44 250.698 151.68 252.058 152C253.418 152.24 254.578 152.56 255.538 152.96L252.538 167.72ZM300.763 182.96C300.763 171.44 296.523 165.68 288.043 165.68C286.203 165.68 284.363 165.92 282.523 166.4C280.763 166.88 279.323 167.48 278.203 168.2V200.72C279.083 200.88 280.203 201.04 281.563 201.2C282.923 201.28 284.403 201.32 286.003 201.32C290.883 201.32 294.563 199.64 297.043 196.28C299.523 192.92 300.763 188.48 300.763 182.96ZM319.003 183.44C319.003 188.48 318.243 193.04 316.723 197.12C315.283 201.2 313.163 204.68 310.363 207.56C307.563 210.44 304.123 212.68 300.043 214.28C295.963 215.8 291.323 216.56 286.123 216.56C283.963 216.56 281.683 216.44 279.283 216.2C276.963 216.04 274.643 215.8 272.323 215.48C270.083 215.16 267.923 214.8 265.843 214.4C263.763 213.92 261.923 213.44 260.323 212.96V124.76L278.203 121.88V153.32C280.203 152.44 282.283 151.76 284.443 151.28C286.603 150.8 288.923 150.56 291.403 150.56C295.883 150.56 299.843 151.36 303.283 152.96C306.723 154.48 309.603 156.68 311.923 159.56C314.243 162.44 316.003 165.92 317.203 170C318.403 174 319.003 178.48 319.003 183.44ZM352.065 202.52C353.825 202.52 355.505 202.48 357.105 202.4C358.705 202.32 359.985 202.2 360.945 202.04V188.48C360.225 188.32 359.145 188.16 357.705 188C356.265 187.84 354.945 187.76 353.745 187.76C352.065 187.76 350.465 187.88 348.945 188.12C347.505 188.28 346.225 188.64 345.105 189.2C343.985 189.76 343.105 190.52 342.465 191.48C341.825 192.44 341.505 193.64 341.505 195.08C341.505 197.88 342.425 199.84 344.265 200.96C346.185 202 348.785 202.52 352.065 202.52ZM350.625 150.2C355.905 150.2 360.305 150.8 363.825 152C367.345 153.2 370.145 154.92 372.225 157.16C374.385 159.4 375.905 162.12 376.785 165.32C377.665 168.52 378.105 172.08 378.105 176V213.2C375.545 213.76 371.985 214.4 367.425 215.12C362.865 215.92 357.345 216.32 350.865 216.32C346.785 216.32 343.065 215.96 339.705 215.24C336.425 214.52 333.585 213.36 331.185 211.76C328.785 210.08 326.945 207.92 325.665 205.28C324.385 202.64 323.745 199.4 323.745 195.56C323.745 191.88 324.465 188.76 325.905 186.2C327.425 183.64 329.425 181.6 331.905 180.08C334.385 178.56 337.225 177.48 340.425 176.84C343.625 176.12 346.945 175.76 350.385 175.76C352.705 175.76 354.745 175.88 356.505 176.12C358.345 176.28 359.825 176.52 360.945 176.84V175.16C360.945 172.12 360.025 169.68 358.185 167.84C356.345 166 353.145 165.08 348.585 165.08C345.545 165.08 342.545 165.32 339.585 165.8C336.625 166.2 334.065 166.8 331.905 167.6L329.625 153.2C330.665 152.88 331.945 152.56 333.465 152.24C335.065 151.84 336.785 151.52 338.625 151.28C340.465 150.96 342.385 150.72 344.385 150.56C346.465 150.32 348.545 150.2 350.625 150.2ZM389.473 154.04C392.513 153.16 396.433 152.36 401.233 151.64C406.033 150.84 411.073 150.44 416.353 150.44C421.713 150.44 426.153 151.16 429.673 152.6C433.273 153.96 436.113 155.92 438.193 158.48C440.273 161.04 441.753 164.08 442.633 167.6C443.513 171.12 443.953 175.04 443.953 179.36V215H426.073V181.52C426.073 175.76 425.313 171.68 423.793 169.28C422.273 166.88 419.433 165.68 415.273 165.68C413.993 165.68 412.633 165.76 411.193 165.92C409.753 166 408.473 166.12 407.353 166.28V215H389.473V154.04ZM150.166 288.92C150.166 283.4 148.926 279 146.446 275.72C143.966 272.36 140.286 270.68 135.406 270.68C133.806 270.68 132.326 270.76 130.966 270.92C129.606 271 128.486 271.12 127.606 271.28V303.56C128.726 304.28 130.166 304.88 131.926 305.36C133.766 305.84 135.606 306.08 137.446 306.08C145.926 306.08 150.166 300.36 150.166 288.92ZM168.406 288.44C168.406 293.32 167.806 297.76 166.606 301.76C165.406 305.76 163.646 309.2 161.326 312.08C159.006 314.96 156.126 317.2 152.686 318.8C149.246 320.4 145.286 321.2 140.806 321.2C138.326 321.2 136.006 320.96 133.846 320.48C131.686 320 129.606 319.32 127.606 318.44V342.2H109.726V259.04C111.326 258.56 113.166 258.12 115.246 257.72C117.326 257.24 119.486 256.84 121.726 256.52C124.046 256.2 126.366 255.96 128.686 255.8C131.086 255.56 133.366 255.44 135.526 255.44C140.726 255.44 145.366 256.24 149.446 257.84C153.526 259.36 156.966 261.56 159.766 264.44C162.566 267.24 164.686 270.68 166.126 274.76C167.646 278.84 168.406 283.4 168.406 288.44ZM174.348 288.92C174.348 283.32 175.188 278.44 176.868 274.28C178.628 270.04 180.908 266.52 183.708 263.72C186.508 260.92 189.708 258.8 193.308 257.36C196.988 255.92 200.748 255.2 204.588 255.2C213.548 255.2 220.628 257.96 225.828 263.48C231.028 268.92 233.628 276.96 233.628 287.6C233.628 288.64 233.588 289.8 233.508 291.08C233.428 292.28 233.348 293.36 233.268 294.32H192.708C193.108 298 194.828 300.92 197.868 303.08C200.908 305.24 204.988 306.32 210.108 306.32C213.388 306.32 216.588 306.04 219.708 305.48C222.908 304.84 225.508 304.08 227.508 303.2L229.908 317.72C228.948 318.2 227.668 318.68 226.068 319.16C224.468 319.64 222.668 320.04 220.668 320.36C218.748 320.76 216.668 321.08 214.428 321.32C212.188 321.56 209.948 321.68 207.708 321.68C202.028 321.68 197.068 320.84 192.828 319.16C188.668 317.48 185.188 315.2 182.388 312.32C179.668 309.36 177.628 305.88 176.268 301.88C174.988 297.88 174.348 293.56 174.348 288.92ZM216.348 282.08C216.268 280.56 215.988 279.08 215.508 277.64C215.108 276.2 214.428 274.92 213.468 273.8C212.588 272.68 211.428 271.76 209.988 271.04C208.628 270.32 206.908 269.96 204.828 269.96C202.828 269.96 201.108 270.32 199.668 271.04C198.228 271.68 197.028 272.56 196.068 273.68C195.108 274.8 194.348 276.12 193.788 277.64C193.308 279.08 192.948 280.56 192.708 282.08H216.348ZM280.666 272.72C279.066 272.32 277.186 271.92 275.026 271.52C272.866 271.04 270.546 270.8 268.066 270.8C266.946 270.8 265.586 270.92 263.986 271.16C262.466 271.32 261.306 271.52 260.506 271.76V320H242.626V260.24C245.826 259.12 249.586 258.08 253.906 257.12C258.306 256.08 263.186 255.56 268.546 255.56C269.506 255.56 270.666 255.64 272.026 255.8C273.386 255.88 274.746 256.04 276.106 256.28C277.466 256.44 278.826 256.68 280.186 257C281.546 257.24 282.706 257.56 283.666 257.96L280.666 272.72ZM302.519 286.4C302.519 296.4 306.559 301.4 314.639 301.4C316.479 301.4 318.199 301.16 319.799 300.68C321.399 300.2 322.759 299.64 323.879 299V270.44C322.999 270.28 321.959 270.16 320.759 270.08C319.559 269.92 318.159 269.84 316.559 269.84C311.839 269.84 308.319 271.4 305.999 274.52C303.679 277.64 302.519 281.6 302.519 286.4ZM341.759 312.08C341.759 322.4 339.119 330.04 333.839 335C328.639 340.04 320.559 342.56 309.599 342.56C305.759 342.56 301.919 342.2 298.079 341.48C294.239 340.84 290.679 339.96 287.399 338.84L290.519 323.84C293.319 324.96 296.239 325.84 299.279 326.48C302.399 327.12 305.919 327.44 309.839 327.44C314.959 327.44 318.559 326.32 320.639 324.08C322.799 321.84 323.879 318.96 323.879 315.44V313.16C321.959 314.04 319.959 314.72 317.879 315.2C315.879 315.6 313.679 315.8 311.279 315.8C302.559 315.8 295.879 313.24 291.239 308.12C286.599 302.92 284.279 295.68 284.279 286.4C284.279 281.76 284.999 277.56 286.439 273.8C287.879 269.96 289.959 266.68 292.679 263.96C295.479 261.24 298.879 259.16 302.879 257.72C306.879 256.2 311.399 255.44 316.439 255.44C318.599 255.44 320.799 255.56 323.039 255.8C325.359 255.96 327.639 256.2 329.879 256.52C332.119 256.84 334.239 257.24 336.239 257.72C338.319 258.12 340.159 258.56 341.759 259.04V312.08ZM412.769 288.32C412.769 293.28 412.049 297.84 410.609 302C409.169 306.08 407.089 309.6 404.369 312.56C401.649 315.44 398.369 317.68 394.529 319.28C390.769 320.88 386.529 321.68 381.809 321.68C377.169 321.68 372.929 320.88 369.089 319.28C365.329 317.68 362.089 315.44 359.369 312.56C356.649 309.6 354.529 306.08 353.009 302C351.489 297.84 350.729 293.28 350.729 288.32C350.729 283.36 351.489 278.84 353.009 274.76C354.609 270.68 356.769 267.2 359.489 264.32C362.289 261.44 365.569 259.2 369.329 257.6C373.169 256 377.329 255.2 381.809 255.2C386.369 255.2 390.529 256 394.289 257.6C398.129 259.2 401.409 261.44 404.129 264.32C406.849 267.2 408.969 270.68 410.489 274.76C412.009 278.84 412.769 283.36 412.769 288.32ZM394.529 288.32C394.529 282.8 393.409 278.48 391.169 275.36C389.009 272.16 385.889 270.56 381.809 270.56C377.729 270.56 374.569 272.16 372.329 275.36C370.089 278.48 368.969 282.8 368.969 288.32C368.969 293.84 370.089 298.24 372.329 301.52C374.569 304.72 377.729 306.32 381.809 306.32C385.889 306.32 389.009 304.72 391.169 301.52C393.409 298.24 394.529 293.84 394.529 288.32ZM447.02 321.2C441.82 321.12 437.58 320.56 434.3 319.52C431.1 318.48 428.54 317.04 426.62 315.2C424.78 313.28 423.5 311 422.78 308.36C422.14 305.64 421.82 302.6 421.82 299.24V229.76L439.7 226.88V295.64C439.7 297.24 439.82 298.68 440.06 299.96C440.3 301.24 440.74 302.32 441.38 303.2C442.1 304.08 443.1 304.8 444.38 305.36C445.66 305.92 447.38 306.28 449.54 306.44L447.02 321.2ZM480.866 307.52C482.626 307.52 484.306 307.48 485.906 307.4C487.506 307.32 488.786 307.2 489.746 307.04V293.48C489.026 293.32 487.946 293.16 486.506 293C485.066 292.84 483.746 292.76 482.546 292.76C480.866 292.76 479.266 292.88 477.746 293.12C476.306 293.28 475.026 293.64 473.906 294.2C472.786 294.76 471.906 295.52 471.266 296.48C470.626 297.44 470.306 298.64 470.306 300.08C470.306 302.88 471.226 304.84 473.066 305.96C474.986 307 477.586 307.52 480.866 307.52ZM479.426 255.2C484.706 255.2 489.106 255.8 492.626 257C496.146 258.2 498.946 259.92 501.026 262.16C503.186 264.4 504.706 267.12 505.586 270.32C506.466 273.52 506.906 277.08 506.906 281V318.2C504.346 318.76 500.786 319.4 496.226 320.12C491.666 320.92 486.146 321.32 479.666 321.32C475.586 321.32 471.866 320.96 468.506 320.24C465.226 319.52 462.386 318.36 459.986 316.76C457.586 315.08 455.746 312.92 454.466 310.28C453.186 307.64 452.546 304.4 452.546 300.56C452.546 296.88 453.266 293.76 454.706 291.2C456.226 288.64 458.226 286.6 460.706 285.08C463.186 283.56 466.026 282.48 469.226 281.84C472.426 281.12 475.746 280.76 479.186 280.76C481.506 280.76 483.546 280.88 485.306 281.12C487.146 281.28 488.626 281.52 489.746 281.84V280.16C489.746 277.12 488.826 274.68 486.986 272.84C485.146 271 481.946 270.08 477.386 270.08C474.346 270.08 471.346 270.32 468.386 270.8C465.426 271.2 462.866 271.8 460.706 272.6L458.426 258.2C459.466 257.88 460.746 257.56 462.266 257.24C463.866 256.84 465.586 256.52 467.426 256.28C469.266 255.96 471.186 255.72 473.186 255.56C475.266 255.32 477.346 255.2 479.426 255.2Z" fill="url(#paint1_linear_8_5)"/>
</g>
<defs>
<linearGradient id="paint0_linear_8_5" x1="296" y1="0" x2="296" y2="348.5" gradientUnits="userSpaceOnUse">
<stop stop-color="#036932"/>
<stop offset="1" stop-color="#1F392D"/>
</linearGradient>
<linearGradient id="paint1_linear_8_5" x1="308" y1="118" x2="308" y2="387" gradientUnits="userSpaceOnUse">
<stop stop-color="#105531"/>
<stop offset="1" stop-color="#1F3B2E"/>
</linearGradient>
<clipPath id="clip0_8_5">
<rect width="606" height="348.32" fill="white"/>
</clipPath>
</defs>
</svg>
